<mxfile host="app.diagrams.net" agent="Mozilla/5.0 (Windows NT 10.0; Win64; x64) AppleWebKit/537.36 (KHTML, like Gecko) Chrome/136.0.0.0 Safari/537.36" version="27.0.8">
  <diagram name="Page-1" id="UW2ImWDbLDdc1KYBRxbe">
    <mxGraphModel dx="1042" dy="562" grid="1" gridSize="10" guides="1" tooltips="1" connect="1" arrows="1" fold="1" page="1" pageScale="1" pageWidth="850" pageHeight="1100" math="0" shadow="0">
      <root>
        <mxCell id="0" />
        <mxCell id="1" parent="0" />
        <mxCell id="ksOk-UFWetABlpODa1jR-113" value="&lt;b&gt;Informacijski sustav za župni ured Uskoplje&lt;/b&gt;" style="rounded=0;whiteSpace=wrap;html=1;" parent="1" vertex="1">
          <mxGeometry x="365" y="90" width="185" height="60" as="geometry" />
        </mxCell>
        <mxCell id="ksOk-UFWetABlpODa1jR-114" value="" style="endArrow=none;html=1;rounded=0;" parent="1" edge="1">
          <mxGeometry width="50" height="50" relative="1" as="geometry">
            <mxPoint x="460" y="200" as="sourcePoint" />
            <mxPoint x="460" y="150" as="targetPoint" />
          </mxGeometry>
        </mxCell>
        <mxCell id="ksOk-UFWetABlpODa1jR-115" value="" style="endArrow=none;html=1;rounded=0;" parent="1" edge="1">
          <mxGeometry width="50" height="50" relative="1" as="geometry">
            <mxPoint x="280" y="200" as="sourcePoint" />
            <mxPoint x="640" y="200" as="targetPoint" />
          </mxGeometry>
        </mxCell>
        <mxCell id="ksOk-UFWetABlpODa1jR-116" value="" style="endArrow=none;html=1;rounded=0;" parent="1" edge="1">
          <mxGeometry width="50" height="50" relative="1" as="geometry">
            <mxPoint x="280" y="240" as="sourcePoint" />
            <mxPoint x="280" y="200" as="targetPoint" />
          </mxGeometry>
        </mxCell>
        <mxCell id="ksOk-UFWetABlpODa1jR-117" value="" style="endArrow=none;html=1;rounded=0;" parent="1" edge="1">
          <mxGeometry width="50" height="50" relative="1" as="geometry">
            <mxPoint x="640" y="240" as="sourcePoint" />
            <mxPoint x="640" y="200" as="targetPoint" />
          </mxGeometry>
        </mxCell>
        <mxCell id="ksOk-UFWetABlpODa1jR-119" value="" style="endArrow=none;html=1;rounded=0;" parent="1" edge="1">
          <mxGeometry width="50" height="50" relative="1" as="geometry">
            <mxPoint x="460" y="240" as="sourcePoint" />
            <mxPoint x="460" y="200" as="targetPoint" />
          </mxGeometry>
        </mxCell>
        <mxCell id="ksOk-UFWetABlpODa1jR-120" value="&lt;b&gt;KORISNICI&lt;/b&gt;&lt;div&gt;&lt;b&gt;(ŽUPLJANI)&lt;/b&gt;&lt;/div&gt;" style="rounded=0;whiteSpace=wrap;html=1;" parent="1" vertex="1">
          <mxGeometry x="230" y="240" width="100" height="40" as="geometry" />
        </mxCell>
        <mxCell id="ksOk-UFWetABlpODa1jR-121" value="&lt;b&gt;DJELATNICI&lt;/b&gt;" style="rounded=0;whiteSpace=wrap;html=1;" parent="1" vertex="1">
          <mxGeometry x="590" y="240" width="100" height="40" as="geometry" />
        </mxCell>
        <mxCell id="ksOk-UFWetABlpODa1jR-122" value="&lt;b&gt;ADMINISTRATOR&lt;/b&gt;" style="rounded=0;whiteSpace=wrap;html=1;" parent="1" vertex="1">
          <mxGeometry x="402.5" y="240" width="110" height="40" as="geometry" />
        </mxCell>
        <mxCell id="ksOk-UFWetABlpODa1jR-124" value="" style="endArrow=none;html=1;rounded=0;" parent="1" edge="1">
          <mxGeometry width="50" height="50" relative="1" as="geometry">
            <mxPoint x="240" y="280" as="sourcePoint" />
            <mxPoint x="240" y="500" as="targetPoint" />
          </mxGeometry>
        </mxCell>
        <mxCell id="ksOk-UFWetABlpODa1jR-125" value="" style="endArrow=none;html=1;rounded=0;" parent="1" edge="1">
          <mxGeometry width="50" height="50" relative="1" as="geometry">
            <mxPoint x="240" y="320" as="sourcePoint" />
            <mxPoint x="260" y="320" as="targetPoint" />
          </mxGeometry>
        </mxCell>
        <mxCell id="ksOk-UFWetABlpODa1jR-126" value="REGISTRACIJA&amp;nbsp;&lt;div&gt;I PRIJAVA&lt;/div&gt;" style="rounded=1;whiteSpace=wrap;html=1;" parent="1" vertex="1">
          <mxGeometry x="260" y="300" width="90" height="40" as="geometry" />
        </mxCell>
        <mxCell id="ksOk-UFWetABlpODa1jR-127" value="" style="endArrow=none;html=1;rounded=0;" parent="1" edge="1">
          <mxGeometry width="50" height="50" relative="1" as="geometry">
            <mxPoint x="240" y="380" as="sourcePoint" />
            <mxPoint x="260" y="380" as="targetPoint" />
          </mxGeometry>
        </mxCell>
        <mxCell id="ksOk-UFWetABlpODa1jR-128" value="PREGLED&amp;nbsp;&lt;div&gt;ŽUPNIH&amp;nbsp;&lt;/div&gt;&lt;div&gt;OBAVIJESTI&lt;/div&gt;" style="rounded=1;whiteSpace=wrap;html=1;" parent="1" vertex="1">
          <mxGeometry x="260" y="360" width="90" height="40" as="geometry" />
        </mxCell>
        <mxCell id="ksOk-UFWetABlpODa1jR-129" value="" style="endArrow=none;html=1;rounded=0;" parent="1" edge="1">
          <mxGeometry width="50" height="50" relative="1" as="geometry">
            <mxPoint x="240" y="440" as="sourcePoint" />
            <mxPoint x="260" y="440" as="targetPoint" />
          </mxGeometry>
        </mxCell>
        <mxCell id="ksOk-UFWetABlpODa1jR-130" value="PREGLED DOSTUPNIH&lt;div&gt;HODOČAŠĆA&lt;/div&gt;" style="rounded=1;whiteSpace=wrap;html=1;" parent="1" vertex="1">
          <mxGeometry x="260" y="420" width="90" height="40" as="geometry" />
        </mxCell>
        <mxCell id="ksOk-UFWetABlpODa1jR-131" value="" style="endArrow=none;html=1;rounded=0;" parent="1" edge="1">
          <mxGeometry width="50" height="50" relative="1" as="geometry">
            <mxPoint x="240" y="500" as="sourcePoint" />
            <mxPoint x="260" y="500" as="targetPoint" />
          </mxGeometry>
        </mxCell>
        <mxCell id="ksOk-UFWetABlpODa1jR-135" value="PRIJAVA NA&lt;div&gt;HODOČAŠĆE&lt;/div&gt;" style="rounded=1;whiteSpace=wrap;html=1;" parent="1" vertex="1">
          <mxGeometry x="260" y="480" width="90" height="40" as="geometry" />
        </mxCell>
        <mxCell id="ksOk-UFWetABlpODa1jR-136" value="" style="endArrow=none;html=1;rounded=0;" parent="1" edge="1">
          <mxGeometry width="50" height="50" relative="1" as="geometry">
            <mxPoint x="240" y="560" as="sourcePoint" />
            <mxPoint x="240" y="500" as="targetPoint" />
          </mxGeometry>
        </mxCell>
        <mxCell id="ksOk-UFWetABlpODa1jR-137" value="" style="endArrow=none;html=1;rounded=0;" parent="1" edge="1">
          <mxGeometry width="50" height="50" relative="1" as="geometry">
            <mxPoint x="240" y="560" as="sourcePoint" />
            <mxPoint x="260" y="560" as="targetPoint" />
          </mxGeometry>
        </mxCell>
        <mxCell id="ksOk-UFWetABlpODa1jR-138" value="PREGLED ŽUPNIH AKTIVNOSTI I PRIJAVA" style="rounded=1;whiteSpace=wrap;html=1;" parent="1" vertex="1">
          <mxGeometry x="260" y="540" width="90" height="60" as="geometry" />
        </mxCell>
        <mxCell id="ksOk-UFWetABlpODa1jR-139" value="" style="endArrow=none;html=1;rounded=0;" parent="1" edge="1">
          <mxGeometry width="50" height="50" relative="1" as="geometry">
            <mxPoint x="410" y="440" as="sourcePoint" />
            <mxPoint x="410" y="280" as="targetPoint" />
          </mxGeometry>
        </mxCell>
        <mxCell id="ksOk-UFWetABlpODa1jR-142" value="" style="endArrow=none;html=1;rounded=0;" parent="1" edge="1">
          <mxGeometry width="50" height="50" relative="1" as="geometry">
            <mxPoint x="410" y="320" as="sourcePoint" />
            <mxPoint x="430" y="320" as="targetPoint" />
          </mxGeometry>
        </mxCell>
        <mxCell id="ksOk-UFWetABlpODa1jR-143" value="UNOS NOVIH&lt;div&gt;OBAVIJESTI&lt;/div&gt;" style="rounded=1;whiteSpace=wrap;html=1;" parent="1" vertex="1">
          <mxGeometry x="425" y="300" width="80" height="40" as="geometry" />
        </mxCell>
        <mxCell id="ksOk-UFWetABlpODa1jR-144" value="" style="endArrow=none;html=1;rounded=0;" parent="1" edge="1">
          <mxGeometry width="50" height="50" relative="1" as="geometry">
            <mxPoint x="410" y="380" as="sourcePoint" />
            <mxPoint x="425" y="379.55" as="targetPoint" />
          </mxGeometry>
        </mxCell>
        <mxCell id="ksOk-UFWetABlpODa1jR-145" value="BRISANJE&lt;div&gt;OBAVIJESTI&lt;/div&gt;" style="rounded=1;whiteSpace=wrap;html=1;" parent="1" vertex="1">
          <mxGeometry x="425" y="360" width="85" height="40" as="geometry" />
        </mxCell>
        <mxCell id="ksOk-UFWetABlpODa1jR-148" value="UPRAVLJANJE&lt;div&gt;SUSTAVOM&lt;/div&gt;" style="rounded=1;whiteSpace=wrap;html=1;" parent="1" vertex="1">
          <mxGeometry x="422.5" y="425" width="90" height="30" as="geometry" />
        </mxCell>
        <mxCell id="ksOk-UFWetABlpODa1jR-156" value="" style="endArrow=none;html=1;rounded=0;" parent="1" edge="1">
          <mxGeometry width="50" height="50" relative="1" as="geometry">
            <mxPoint x="410" y="440" as="sourcePoint" />
            <mxPoint x="422.5" y="439.55" as="targetPoint" />
          </mxGeometry>
        </mxCell>
        <mxCell id="ksOk-UFWetABlpODa1jR-158" value="" style="endArrow=none;html=1;rounded=0;entryX=0.085;entryY=0.984;entryDx=0;entryDy=0;entryPerimeter=0;" parent="1" edge="1">
          <mxGeometry width="50" height="50" relative="1" as="geometry">
            <mxPoint x="601" y="500" as="sourcePoint" />
            <mxPoint x="600.5" y="280" as="targetPoint" />
          </mxGeometry>
        </mxCell>
        <mxCell id="MB__X2JkW4tzdpkjak0a-1" value="" style="endArrow=none;html=1;rounded=0;" parent="1" edge="1">
          <mxGeometry width="50" height="50" relative="1" as="geometry">
            <mxPoint x="620" y="320" as="sourcePoint" />
            <mxPoint x="600" y="320" as="targetPoint" />
          </mxGeometry>
        </mxCell>
        <mxCell id="MB__X2JkW4tzdpkjak0a-2" value="UNOS I UREĐIVANJE&lt;div&gt;OBAVIJESTI&lt;/div&gt;" style="rounded=1;whiteSpace=wrap;html=1;" parent="1" vertex="1">
          <mxGeometry x="620" y="300" width="90" height="40" as="geometry" />
        </mxCell>
        <mxCell id="MB__X2JkW4tzdpkjak0a-3" value="" style="endArrow=none;html=1;rounded=0;" parent="1" edge="1">
          <mxGeometry width="50" height="50" relative="1" as="geometry">
            <mxPoint x="410" y="560" as="sourcePoint" />
            <mxPoint x="410" y="440" as="targetPoint" />
          </mxGeometry>
        </mxCell>
        <mxCell id="MB__X2JkW4tzdpkjak0a-4" value="" style="endArrow=none;html=1;rounded=0;" parent="1" edge="1">
          <mxGeometry width="50" height="50" relative="1" as="geometry">
            <mxPoint x="410" y="499.5" as="sourcePoint" />
            <mxPoint x="420" y="499.5" as="targetPoint" />
          </mxGeometry>
        </mxCell>
        <mxCell id="MB__X2JkW4tzdpkjak0a-5" value="EVIDENCIJA&lt;div&gt;DJELATNIKA&lt;/div&gt;&lt;div&gt;I KORISNIKA&lt;/div&gt;" style="rounded=1;whiteSpace=wrap;html=1;" parent="1" vertex="1">
          <mxGeometry x="420" y="480" width="90" height="40" as="geometry" />
        </mxCell>
        <mxCell id="MB__X2JkW4tzdpkjak0a-6" value="" style="endArrow=none;html=1;rounded=0;" parent="1" edge="1">
          <mxGeometry width="50" height="50" relative="1" as="geometry">
            <mxPoint x="600" y="379.5" as="sourcePoint" />
            <mxPoint x="620" y="379.5" as="targetPoint" />
            <Array as="points">
              <mxPoint x="600" y="379.5" />
            </Array>
          </mxGeometry>
        </mxCell>
        <mxCell id="MB__X2JkW4tzdpkjak0a-7" value="PREGLED&amp;nbsp;&lt;div&gt;OBAVIJESTI&lt;/div&gt;" style="rounded=1;whiteSpace=wrap;html=1;" parent="1" vertex="1">
          <mxGeometry x="620" y="360" width="90" height="40" as="geometry" />
        </mxCell>
        <mxCell id="8cF_Mm6aAdVqw3TxMsmC-2" value="" style="endArrow=none;html=1;rounded=0;" edge="1" parent="1">
          <mxGeometry width="50" height="50" relative="1" as="geometry">
            <mxPoint x="620" y="439.5" as="sourcePoint" />
            <mxPoint x="600" y="439.5" as="targetPoint" />
          </mxGeometry>
        </mxCell>
        <mxCell id="8cF_Mm6aAdVqw3TxMsmC-3" value="EVIDENCIJA&lt;div&gt;KORISNIKA&lt;/div&gt;&lt;div&gt;(ŽUPLJANA)&lt;/div&gt;" style="rounded=1;whiteSpace=wrap;html=1;" vertex="1" parent="1">
          <mxGeometry x="620" y="420" width="90" height="40" as="geometry" />
        </mxCell>
        <mxCell id="8cF_Mm6aAdVqw3TxMsmC-4" value="" style="endArrow=none;html=1;rounded=0;" edge="1" parent="1">
          <mxGeometry width="50" height="50" relative="1" as="geometry">
            <mxPoint x="620" y="499.5" as="sourcePoint" />
            <mxPoint x="600" y="499.5" as="targetPoint" />
          </mxGeometry>
        </mxCell>
        <mxCell id="8cF_Mm6aAdVqw3TxMsmC-5" value="" style="endArrow=none;html=1;rounded=0;" edge="1" parent="1">
          <mxGeometry width="50" height="50" relative="1" as="geometry">
            <mxPoint x="420" y="561" as="sourcePoint" />
            <mxPoint x="410" y="560.7999877929688" as="targetPoint" />
          </mxGeometry>
        </mxCell>
        <mxCell id="8cF_Mm6aAdVqw3TxMsmC-6" value="BRISANJE&amp;nbsp;&lt;div&gt;KORISNIKA&lt;/div&gt;&lt;div&gt;IZ BAZE&lt;/div&gt;" style="rounded=1;whiteSpace=wrap;html=1;" vertex="1" parent="1">
          <mxGeometry x="420" y="540" width="90" height="40" as="geometry" />
        </mxCell>
        <mxCell id="8cF_Mm6aAdVqw3TxMsmC-7" value="PREGLED&lt;div&gt;OBRASCA&lt;/div&gt;&lt;div&gt;KORISNIKA&lt;/div&gt;" style="rounded=1;whiteSpace=wrap;html=1;" vertex="1" parent="1">
          <mxGeometry x="620" y="475" width="90" height="50" as="geometry" />
        </mxCell>
      </root>
    </mxGraphModel>
  </diagram>
</mxfile>
